<mxfile host="app.diagrams.net" modified="2024-10-23T10:59:51.091Z" agent="Mozilla/5.0 (X11; Ubuntu; Linux x86_64; rv:131.0) Gecko/20100101 Firefox/131.0" etag="ls3SAwnSAszEBxXVd0k_" version="24.4.9" type="device">
  <diagram name="Page-1" id="W5yWIA52nIPoz4EIYppS">
    <mxGraphModel dx="2762" dy="2157" grid="1" gridSize="10" guides="1" tooltips="1" connect="1" arrows="1" fold="1" page="1" pageScale="1" pageWidth="850" pageHeight="1100" math="0" shadow="0">
      <root>
        <mxCell id="0" />
        <mxCell id="1" parent="0" />
        <mxCell id="y6gWkrCWeC0vEFRKWc7C-44" value="" style="rounded=0;whiteSpace=wrap;html=1;" vertex="1" parent="1">
          <mxGeometry x="-300" y="-175" width="1560" height="900" as="geometry" />
        </mxCell>
        <mxCell id="y6gWkrCWeC0vEFRKWc7C-4" value="&lt;font color=&quot;#0c0d0d&quot;&gt;On-Premise&lt;/font&gt;" style="sketch=0;outlineConnect=0;gradientColor=none;html=1;whiteSpace=wrap;fontSize=12;fontStyle=0;shape=mxgraph.aws4.group;grIcon=mxgraph.aws4.group_on_premise;strokeColor=#0E0F0F;fillColor=none;verticalAlign=top;align=left;spacingLeft=30;fontColor=#AAB7B8;dashed=0;" vertex="1" parent="1">
          <mxGeometry x="-170" y="120" width="170" height="490" as="geometry" />
        </mxCell>
        <mxCell id="y6gWkrCWeC0vEFRKWc7C-7" value="&lt;div&gt;client&lt;/div&gt;" style="outlineConnect=0;dashed=0;verticalLabelPosition=bottom;verticalAlign=top;align=center;html=1;shape=mxgraph.aws3.management_console;fillColor=#D2D3D3;gradientColor=none;" vertex="1" parent="1">
          <mxGeometry x="-116.5" y="320" width="63" height="63" as="geometry" />
        </mxCell>
        <mxCell id="y6gWkrCWeC0vEFRKWc7C-8" value="internet" style="outlineConnect=0;dashed=0;verticalLabelPosition=bottom;verticalAlign=top;align=center;html=1;shape=mxgraph.aws3.internet_gateway;fillColor=#F58534;gradientColor=none;" vertex="1" parent="1">
          <mxGeometry x="40" y="315.5" width="69" height="72" as="geometry" />
        </mxCell>
        <mxCell id="y6gWkrCWeC0vEFRKWc7C-10" style="edgeStyle=orthogonalEdgeStyle;rounded=0;orthogonalLoop=1;jettySize=auto;html=1;entryX=0;entryY=0.5;entryDx=0;entryDy=0;entryPerimeter=0;" edge="1" parent="1" source="y6gWkrCWeC0vEFRKWc7C-7" target="y6gWkrCWeC0vEFRKWc7C-8">
          <mxGeometry relative="1" as="geometry" />
        </mxCell>
        <mxCell id="y6gWkrCWeC0vEFRKWc7C-2" value="AWS Account" style="points=[[0,0],[0.25,0],[0.5,0],[0.75,0],[1,0],[1,0.25],[1,0.5],[1,0.75],[1,1],[0.75,1],[0.5,1],[0.25,1],[0,1],[0,0.75],[0,0.5],[0,0.25]];outlineConnect=0;gradientColor=none;html=1;whiteSpace=wrap;fontSize=12;fontStyle=0;container=0;pointerEvents=0;collapsible=0;recursiveResize=0;shape=mxgraph.aws4.group;grIcon=mxgraph.aws4.group_account;strokeColor=#CD2264;fillColor=none;verticalAlign=top;align=left;spacingLeft=30;fontColor=#CD2264;dashed=0;" vertex="1" parent="1">
          <mxGeometry x="160" y="-60" width="910" height="670" as="geometry" />
        </mxCell>
        <mxCell id="y6gWkrCWeC0vEFRKWc7C-24" value="Public subnet" style="points=[[0,0],[0.25,0],[0.5,0],[0.75,0],[1,0],[1,0.25],[1,0.5],[1,0.75],[1,1],[0.75,1],[0.5,1],[0.25,1],[0,1],[0,0.75],[0,0.5],[0,0.25]];outlineConnect=0;gradientColor=none;html=1;whiteSpace=wrap;fontSize=12;fontStyle=0;container=1;pointerEvents=0;collapsible=0;recursiveResize=0;shape=mxgraph.aws4.group;grIcon=mxgraph.aws4.group_security_group;grStroke=0;strokeColor=#248814;fillColor=#F2F6E8;verticalAlign=top;align=left;spacingLeft=30;fontColor=#248814;dashed=0;" vertex="1" parent="1">
          <mxGeometry x="820" y="231.5" width="140" height="328.5" as="geometry" />
        </mxCell>
        <mxCell id="y6gWkrCWeC0vEFRKWc7C-1" value="VPC" style="sketch=0;outlineConnect=0;gradientColor=none;html=1;whiteSpace=wrap;fontSize=12;fontStyle=0;shape=mxgraph.aws4.group;grIcon=mxgraph.aws4.group_vpc;strokeColor=#879196;fillColor=none;verticalAlign=top;align=left;spacingLeft=30;fontColor=#879196;dashed=0;" vertex="1" parent="1">
          <mxGeometry x="200" y="-20" width="840" height="610" as="geometry" />
        </mxCell>
        <mxCell id="y6gWkrCWeC0vEFRKWc7C-18" value="" style="rounded=1;arcSize=10;dashed=1;strokeColor=#F59D56;fillColor=none;gradientColor=none;dashPattern=8 4;strokeWidth=2;" vertex="1" parent="1">
          <mxGeometry x="220" y="200" width="380" height="380" as="geometry" />
        </mxCell>
        <mxCell id="y6gWkrCWeC0vEFRKWc7C-12" value="Public subnet" style="points=[[0,0],[0.25,0],[0.5,0],[0.75,0],[1,0],[1,0.25],[1,0.5],[1,0.75],[1,1],[0.75,1],[0.5,1],[0.25,1],[0,1],[0,0.75],[0,0.5],[0,0.25]];outlineConnect=0;gradientColor=none;html=1;whiteSpace=wrap;fontSize=12;fontStyle=0;container=1;pointerEvents=0;collapsible=0;recursiveResize=0;shape=mxgraph.aws4.group;grIcon=mxgraph.aws4.group_security_group;grStroke=0;strokeColor=#7AA116;fillColor=#F2F6E8;verticalAlign=top;align=left;spacingLeft=30;fontColor=#248814;dashed=0;" vertex="1" parent="1">
          <mxGeometry x="240" y="230" width="140" height="330" as="geometry" />
        </mxCell>
        <mxCell id="y6gWkrCWeC0vEFRKWc7C-41" style="edgeStyle=orthogonalEdgeStyle;rounded=0;orthogonalLoop=1;jettySize=auto;html=1;" edge="1" parent="1" source="y6gWkrCWeC0vEFRKWc7C-14" target="y6gWkrCWeC0vEFRKWc7C-40">
          <mxGeometry relative="1" as="geometry">
            <Array as="points">
              <mxPoint x="308" y="150" />
              <mxPoint x="600" y="150" />
            </Array>
          </mxGeometry>
        </mxCell>
        <mxCell id="y6gWkrCWeC0vEFRKWc7C-14" value="bastion host" style="sketch=0;outlineConnect=0;fontColor=#232F3E;gradientColor=none;strokeColor=#ffffff;fillColor=#232F3E;dashed=0;verticalLabelPosition=middle;verticalAlign=bottom;align=center;html=1;whiteSpace=wrap;fontSize=10;fontStyle=1;spacing=3;shape=mxgraph.aws4.productIcon;prIcon=mxgraph.aws4.ec2;" vertex="1" parent="1">
          <mxGeometry x="268" y="301.5" width="80" height="100" as="geometry" />
        </mxCell>
        <mxCell id="y6gWkrCWeC0vEFRKWc7C-19" value="Private subnet" style="points=[[0,0],[0.25,0],[0.5,0],[0.75,0],[1,0],[1,0.25],[1,0.5],[1,0.75],[1,1],[0.75,1],[0.5,1],[0.25,1],[0,1],[0,0.75],[0,0.5],[0,0.25]];outlineConnect=0;gradientColor=none;html=1;whiteSpace=wrap;fontSize=12;fontStyle=0;container=1;pointerEvents=0;collapsible=0;recursiveResize=0;shape=mxgraph.aws4.group;grIcon=mxgraph.aws4.group_security_group;grStroke=0;strokeColor=#A10C06;fillColor=#F2F6E8;verticalAlign=top;align=left;spacingLeft=30;fontColor=#248814;dashed=0;" vertex="1" parent="1">
          <mxGeometry x="410" y="231.5" width="140" height="328.5" as="geometry" />
        </mxCell>
        <mxCell id="y6gWkrCWeC0vEFRKWc7C-21" value="" style="rounded=1;arcSize=10;dashed=1;strokeColor=#F59D56;fillColor=none;gradientColor=none;dashPattern=8 4;strokeWidth=2;" vertex="1" parent="1">
          <mxGeometry x="630" y="200" width="380" height="380" as="geometry" />
        </mxCell>
        <mxCell id="y6gWkrCWeC0vEFRKWc7C-20" value="Availibility Zone 1" style="text;html=1;align=center;verticalAlign=middle;resizable=0;points=[];autosize=1;strokeColor=none;fillColor=none;" vertex="1" parent="1">
          <mxGeometry x="335" y="170" width="120" height="30" as="geometry" />
        </mxCell>
        <mxCell id="y6gWkrCWeC0vEFRKWc7C-25" value="Availibility Zone 1" style="text;html=1;align=center;verticalAlign=middle;resizable=0;points=[];autosize=1;strokeColor=none;fillColor=none;" vertex="1" parent="1">
          <mxGeometry x="745" y="170" width="120" height="30" as="geometry" />
        </mxCell>
        <mxCell id="y6gWkrCWeC0vEFRKWc7C-22" value="&lt;font color=&quot;#88341a&quot;&gt;Private subnet&lt;/font&gt;" style="points=[[0,0],[0.25,0],[0.5,0],[0.75,0],[1,0],[1,0.25],[1,0.5],[1,0.75],[1,1],[0.75,1],[0.5,1],[0.25,1],[0,1],[0,0.75],[0,0.5],[0,0.25]];outlineConnect=0;gradientColor=none;html=1;whiteSpace=wrap;fontSize=12;fontStyle=0;container=1;pointerEvents=0;collapsible=0;recursiveResize=0;shape=mxgraph.aws4.group;grIcon=mxgraph.aws4.group_security_group;grStroke=0;strokeColor=#A10202;fillColor=#F2F6E8;verticalAlign=top;align=left;spacingLeft=30;fontColor=#248814;dashed=0;" vertex="1" parent="1">
          <mxGeometry x="650" y="230" width="140" height="330" as="geometry" />
        </mxCell>
        <mxCell id="y6gWkrCWeC0vEFRKWc7C-26" value="" style="rounded=1;arcSize=10;dashed=1;strokeColor=#0C0D0D;fillColor=none;gradientColor=none;dashPattern=8 4;strokeWidth=3;" vertex="1" parent="1">
          <mxGeometry x="390" y="310" width="420" height="240" as="geometry" />
        </mxCell>
        <mxCell id="y6gWkrCWeC0vEFRKWc7C-28" value="Node Group 1" style="text;html=1;align=center;verticalAlign=middle;resizable=0;points=[];autosize=1;strokeColor=default;fillColor=none;strokeWidth=5;" vertex="1" parent="1">
          <mxGeometry x="560" y="310" width="100" height="30" as="geometry" />
        </mxCell>
        <mxCell id="y6gWkrCWeC0vEFRKWc7C-33" value="" style="aspect=fixed;sketch=0;html=1;dashed=0;whitespace=wrap;verticalLabelPosition=bottom;verticalAlign=top;fillColor=#2875E2;strokeColor=#ffffff;points=[[0.005,0.63,0],[0.1,0.2,0],[0.9,0.2,0],[0.5,0,0],[0.995,0.63,0],[0.72,0.99,0],[0.5,1,0],[0.28,0.99,0]];shape=mxgraph.kubernetes.icon2;kubernetesLabel=1;prIcon=pod" vertex="1" parent="1">
          <mxGeometry x="410" y="327.5" width="50" height="48" as="geometry" />
        </mxCell>
        <mxCell id="y6gWkrCWeC0vEFRKWc7C-34" value="" style="aspect=fixed;sketch=0;html=1;dashed=0;whitespace=wrap;verticalLabelPosition=bottom;verticalAlign=top;fillColor=#2875E2;strokeColor=#ffffff;points=[[0.005,0.63,0],[0.1,0.2,0],[0.9,0.2,0],[0.5,0,0],[0.995,0.63,0],[0.72,0.99,0],[0.5,1,0],[0.28,0.99,0]];shape=mxgraph.kubernetes.icon2;kubernetesLabel=1;prIcon=pod" vertex="1" parent="1">
          <mxGeometry x="480" y="327.5" width="50" height="48" as="geometry" />
        </mxCell>
        <mxCell id="y6gWkrCWeC0vEFRKWc7C-35" value="" style="aspect=fixed;sketch=0;html=1;dashed=0;whitespace=wrap;verticalLabelPosition=bottom;verticalAlign=top;fillColor=#2875E2;strokeColor=#ffffff;points=[[0.005,0.63,0],[0.1,0.2,0],[0.9,0.2,0],[0.5,0,0],[0.995,0.63,0],[0.72,0.99,0],[0.5,1,0],[0.28,0.99,0]];shape=mxgraph.kubernetes.icon2;kubernetesLabel=1;prIcon=pod" vertex="1" parent="1">
          <mxGeometry x="410" y="390" width="50" height="48" as="geometry" />
        </mxCell>
        <mxCell id="y6gWkrCWeC0vEFRKWc7C-51" style="edgeStyle=orthogonalEdgeStyle;rounded=0;orthogonalLoop=1;jettySize=auto;html=1;dashed=1;" edge="1" parent="1" source="y6gWkrCWeC0vEFRKWc7C-36" target="y6gWkrCWeC0vEFRKWc7C-50">
          <mxGeometry relative="1" as="geometry" />
        </mxCell>
        <mxCell id="y6gWkrCWeC0vEFRKWc7C-36" value="" style="aspect=fixed;sketch=0;html=1;dashed=0;whitespace=wrap;verticalLabelPosition=bottom;verticalAlign=top;fillColor=#2875E2;strokeColor=#ffffff;points=[[0.005,0.63,0],[0.1,0.2,0],[0.9,0.2,0],[0.5,0,0],[0.995,0.63,0],[0.72,0.99,0],[0.5,1,0],[0.28,0.99,0]];shape=mxgraph.kubernetes.icon2;kubernetesLabel=1;prIcon=pod" vertex="1" parent="1">
          <mxGeometry x="480" y="390" width="50" height="48" as="geometry" />
        </mxCell>
        <mxCell id="y6gWkrCWeC0vEFRKWc7C-37" value="" style="aspect=fixed;sketch=0;html=1;dashed=0;whitespace=wrap;verticalLabelPosition=bottom;verticalAlign=top;fillColor=#2875E2;strokeColor=#ffffff;points=[[0.005,0.63,0],[0.1,0.2,0],[0.9,0.2,0],[0.5,0,0],[0.995,0.63,0],[0.72,0.99,0],[0.5,1,0],[0.28,0.99,0]];shape=mxgraph.kubernetes.icon2;kubernetesLabel=1;prIcon=pod" vertex="1" parent="1">
          <mxGeometry x="680" y="327.5" width="50" height="48" as="geometry" />
        </mxCell>
        <mxCell id="y6gWkrCWeC0vEFRKWc7C-53" style="edgeStyle=orthogonalEdgeStyle;rounded=0;orthogonalLoop=1;jettySize=auto;html=1;dashed=1;" edge="1" parent="1" source="y6gWkrCWeC0vEFRKWc7C-38">
          <mxGeometry relative="1" as="geometry">
            <mxPoint x="620" y="570" as="targetPoint" />
          </mxGeometry>
        </mxCell>
        <mxCell id="y6gWkrCWeC0vEFRKWc7C-38" value="" style="aspect=fixed;sketch=0;html=1;dashed=0;whitespace=wrap;verticalLabelPosition=bottom;verticalAlign=top;fillColor=#2875E2;strokeColor=#ffffff;points=[[0.005,0.63,0],[0.1,0.2,0],[0.9,0.2,0],[0.5,0,0],[0.995,0.63,0],[0.72,0.99,0],[0.5,1,0],[0.28,0.99,0]];shape=mxgraph.kubernetes.icon2;kubernetesLabel=1;prIcon=pod" vertex="1" parent="1">
          <mxGeometry x="680" y="390" width="50" height="48" as="geometry" />
        </mxCell>
        <mxCell id="y6gWkrCWeC0vEFRKWc7C-52" style="edgeStyle=orthogonalEdgeStyle;rounded=0;orthogonalLoop=1;jettySize=auto;html=1;dashed=1;" edge="1" parent="1" source="y6gWkrCWeC0vEFRKWc7C-39" target="y6gWkrCWeC0vEFRKWc7C-50">
          <mxGeometry relative="1" as="geometry" />
        </mxCell>
        <mxCell id="y6gWkrCWeC0vEFRKWc7C-39" value="" style="aspect=fixed;sketch=0;html=1;dashed=0;whitespace=wrap;verticalLabelPosition=bottom;verticalAlign=top;fillColor=#2875E2;strokeColor=#ffffff;points=[[0.005,0.63,0],[0.1,0.2,0],[0.9,0.2,0],[0.5,0,0],[0.995,0.63,0],[0.72,0.99,0],[0.5,1,0],[0.28,0.99,0]];shape=mxgraph.kubernetes.icon2;kubernetesLabel=1;prIcon=pod" vertex="1" parent="1">
          <mxGeometry x="680" y="450" width="50" height="48" as="geometry" />
        </mxCell>
        <mxCell id="y6gWkrCWeC0vEFRKWc7C-15" style="edgeStyle=orthogonalEdgeStyle;rounded=0;orthogonalLoop=1;jettySize=auto;html=1;" edge="1" parent="1" source="y6gWkrCWeC0vEFRKWc7C-8" target="y6gWkrCWeC0vEFRKWc7C-14">
          <mxGeometry relative="1" as="geometry" />
        </mxCell>
        <mxCell id="y6gWkrCWeC0vEFRKWc7C-42" style="edgeStyle=orthogonalEdgeStyle;rounded=0;orthogonalLoop=1;jettySize=auto;html=1;" edge="1" parent="1" source="y6gWkrCWeC0vEFRKWc7C-40" target="y6gWkrCWeC0vEFRKWc7C-28">
          <mxGeometry relative="1" as="geometry" />
        </mxCell>
        <mxCell id="y6gWkrCWeC0vEFRKWc7C-40" value="EKS Controleplane" style="sketch=0;outlineConnect=0;fontColor=#232F3E;gradientColor=none;strokeColor=#ffffff;fillColor=#232F3E;dashed=0;verticalLabelPosition=middle;verticalAlign=bottom;align=center;html=1;whiteSpace=wrap;fontSize=10;fontStyle=1;spacing=3;shape=mxgraph.aws4.productIcon;prIcon=mxgraph.aws4.eks;" vertex="1" parent="1">
          <mxGeometry x="570" y="20" width="80" height="110" as="geometry" />
        </mxCell>
        <mxCell id="y6gWkrCWeC0vEFRKWc7C-46" value="Internet&#xa;gateway" style="sketch=0;outlineConnect=0;fontColor=#232F3E;gradientColor=none;strokeColor=#232F3E;fillColor=#ffffff;dashed=0;verticalLabelPosition=bottom;verticalAlign=top;align=center;html=1;fontSize=12;fontStyle=0;aspect=fixed;shape=mxgraph.aws4.resourceIcon;resIcon=mxgraph.aws4.internet_gateway;" vertex="1" parent="1">
          <mxGeometry x="150" y="570" width="60" height="60" as="geometry" />
        </mxCell>
        <mxCell id="y6gWkrCWeC0vEFRKWc7C-50" value="NAT gateway" style="sketch=0;outlineConnect=0;fontColor=#232F3E;gradientColor=none;strokeColor=#232F3E;fillColor=#ffffff;dashed=0;verticalLabelPosition=bottom;verticalAlign=top;align=center;html=1;fontSize=12;fontStyle=0;aspect=fixed;shape=mxgraph.aws4.resourceIcon;resIcon=mxgraph.aws4.nat_gateway;" vertex="1" parent="1">
          <mxGeometry x="590" y="570" width="60" height="60" as="geometry" />
        </mxCell>
        <mxCell id="y6gWkrCWeC0vEFRKWc7C-56" value="" style="endArrow=classic;html=1;rounded=0;exitX=0.237;exitY=0.947;exitDx=0;exitDy=0;exitPerimeter=0;" edge="1" parent="1" source="y6gWkrCWeC0vEFRKWc7C-18" target="y6gWkrCWeC0vEFRKWc7C-46">
          <mxGeometry width="50" height="50" relative="1" as="geometry">
            <mxPoint x="364.9966666666665" y="640" as="sourcePoint" />
            <mxPoint x="240" y="640" as="targetPoint" />
            <Array as="points">
              <mxPoint x="310" y="600" />
            </Array>
          </mxGeometry>
        </mxCell>
      </root>
    </mxGraphModel>
  </diagram>
</mxfile>
